# xmcd
#
# Track frame offsets:
# 150
# 16587
# 33947
# 51767
# 68460
# 83580
# 99875
# 117485
# 137235
# 152002
# 174665
# 192107
#
# Disc length: 2813 seconds
#
#
# Revision: 0
# Processed by: cddbd v1.4PL0 Copyright (c) Steve Scherf et al.
# Submitted via: FreeRIP 2.51 
#
DISCID=890afb0c
DTITLE=Doris Justice - Who to Turn To
DYEAR=1997
DGENRE=Country
TTITLE0=Gulf Coast Highway
TTITLE1=When I Need You Most of All
TTITLE2=Who To Turn To
TTITLE3=River
TTITLE4=Lying to the Moon
TTITLE5=Goin' Gone
TTITLE6=Second Story Window
TTITLE7=Swans Against the Sun
TTITLE8=Trying to Sing
TTITLE9=Thirsty Boots
TTITLE10=Jubilee
TTITLE11=Lay Down Your Weary Tune
EXTD=Includes Kyd Brenner in band
EXTT0=
EXTT1=
EXTT2=
EXTT3=
EXTT4=
EXTT5=
EXTT6=
EXTT7=
EXTT8=
EXTT9=
EXTT10=
EXTT11=
PLAYORDER=
